<?xml version="1.0" encoding="UTF-8" standalone="no"?>
<!-- Created with Inkscape (http://www.inkscape.org/) -->

<svg
   xmlns:dc="http://purl.org/dc/elements/1.1/"
   xmlns:cc="http://creativecommons.org/ns#"
   xmlns:rdf="http://www.w3.org/1999/02/22-rdf-syntax-ns#"
   xmlns:svg="http://www.w3.org/2000/svg"
   xmlns="http://www.w3.org/2000/svg"
   xmlns:sodipodi="http://sodipodi.sourceforge.net/DTD/sodipodi-0.dtd"
   xmlns:inkscape="http://www.inkscape.org/namespaces/inkscape"
   width="48"
   height="48"
   viewBox="0 0 48 47.999999"
   id="svg2"
   version="1.1"
   inkscape:version="0.91 r13725"
   sodipodi:docname="main.svg"
   inkscape:export-filename="M:\home\pascal\projects\miniEdit\source\images\main.png"
   inkscape:export-xdpi="480.88864"
   inkscape:export-ydpi="480.88864">
  <defs
     id="defs4" />
  <sodipodi:namedview
     id="base"
     pagecolor="#ffffff"
     bordercolor="#666666"
     borderopacity="1.0"
     inkscape:pageopacity="0.0"
     inkscape:pageshadow="2"
     inkscape:zoom="7.9195959"
     inkscape:cx="-1.323939"
     inkscape:cy="30.099718"
     inkscape:document-units="px"
     inkscape:current-layer="layer1"
     showgrid="true"
     units="px"
     inkscape:window-width="1440"
     inkscape:window-height="837"
     inkscape:window-x="-8"
     inkscape:window-y="-8"
     inkscape:window-maximized="1"
     inkscape:snap-bbox="true"
     inkscape:snap-nodes="false">
    <inkscape:grid
       type="xygrid"
       id="grid4837" />
  </sodipodi:namedview>
  <metadata
     id="metadata7">
    <rdf:RDF>
      <cc:Work
         rdf:about="">
        <dc:format>image/svg+xml</dc:format>
        <dc:type
           rdf:resource="http://purl.org/dc/dcmitype/StillImage" />
        <dc:title />
      </cc:Work>
    </rdf:RDF>
  </metadata>
  <g
     inkscape:label="Layer 1"
     inkscape:groupmode="layer"
     id="layer1"
     transform="translate(0,-1004.3622)">
    <path
       style="opacity:1;fill:#003e5a;fill-opacity:1;stroke:none;stroke-width:0.97679776;stroke-linecap:round;stroke-linejoin:round;stroke-miterlimit:4;stroke-dasharray:none;stroke-opacity:1"
       d="m 0.55426521,1005.0541 47.02891279,0 0,46.7167 -47.02891279,0 z"
       id="rect4834"
       inkscape:connector-curvature="0" />
    <rect
       style="opacity:1;fill:#565b77;fill-opacity:1;stroke:#000000;stroke-width:0.09210749;stroke-linecap:round;stroke-linejoin:miter;stroke-miterlimit:4;stroke-dasharray:none;stroke-opacity:0.16862745"
       id="rect4144"
       width="8.9729967"
       height="47.485062"
       x="0.37486154"
       y="1004.7547"
       rx="0"
       ry="0" />
    <path
       style="font-style:normal;font-weight:normal;font-size:medium;line-height:125%;font-family:sans-serif;letter-spacing:0px;word-spacing:0px;fill:#deffff;fill-opacity:1;stroke:none;stroke-width:1px;stroke-linecap:butt;stroke-linejoin:miter;stroke-opacity:1"
       inkscape:connector-curvature="0"
       id="path4148"
       d="m 21.978614,1043.905 -0.787575,0 q -1.575152,0 -2.047698,-0.4656 -0.483797,-0.4656 -0.483797,-2.0139 l 0,-2.685 q 0,-1.6891 -0.506298,-2.4577 -0.506299,-0.7688 -1.755169,-1.0611 1.24887,-0.2707 1.755169,-1.0394 0.506298,-0.7687 0.506298,-2.4685 l 0,-2.6851 q 0,-1.5374 0.483797,-2.0031 0.472546,-0.4763 2.047698,-0.4763 l 0.787575,0 0,-1.5484 -0.708817,0 q -2.80152,0 -3.735361,0.8013 -0.945092,0.7904 -0.945092,3.1831 l 0,2.5985 q 0,1.6133 -0.607557,2.2412 -0.607558,0.617 -2.205213,0.617 l -0.697568,0 0,1.5484 0.697568,0 q 1.597655,0 2.205213,0.628 0.607557,0.6279 0.607557,2.2628 l 0,2.5876 q 0,2.3929 0.945092,3.194 0.933841,0.8013 3.735361,0.8013 l 0.708817,0 0,-1.5591 z" />
    <text
       sodipodi:linespacing="125%"
       id="text4150"
       y="958.15167"
       x="13.522503"
       style="font-style:normal;font-weight:normal;font-size:14.43462086px;line-height:125%;font-family:sans-serif;letter-spacing:0px;word-spacing:0px;fill:#df2d00;fill-opacity:1;stroke:none;stroke-width:1px;stroke-linecap:butt;stroke-linejoin:miter;stroke-opacity:1"
       xml:space="preserve"
       transform="scale(0.93834721,1.0657036)"><tspan
         style="font-style:normal;font-variant:normal;font-weight:bold;font-stretch:normal;font-family:Consolas;-inkscape-font-specification:Consolas;fill:#df2d00;fill-opacity:1"
         y="958.15167"
         x="13.522503"
         id="tspan4152"
         sodipodi:role="line">mini</tspan></text>
    <path
       style="opacity:1;fill:#000000;fill-opacity:1;stroke:none;stroke-width:0.98000002;stroke-linecap:round;stroke-linejoin:miter;stroke-miterlimit:4;stroke-dasharray:none;stroke-opacity:1"
       d="m 0.08877385,1004.4509 0,47.9113 47.91122615,0 0,-47.9113 -47.91122615,0 z m 2.44550555,2.4455 43.0222046,0 0,43.0203 -43.0222046,0 0,-43.0203 z"
       id="rect4834-6"
       inkscape:connector-curvature="0" />
    <path
       style="font-style:normal;font-weight:normal;font-size:medium;line-height:125%;font-family:sans-serif;letter-spacing:0px;word-spacing:0px;fill:#deffff;fill-opacity:1;stroke:none;stroke-width:1px;stroke-linecap:butt;stroke-linejoin:miter;stroke-opacity:1"
       inkscape:connector-curvature="0"
       id="path4148-3"
       d="m 32.849424,1043.905 0.787576,0 q 1.575152,0 2.047698,-0.4656 0.483796,-0.4656 0.483796,-2.0139 l 0,-2.685 q 0,-1.6891 0.506298,-2.4577 0.506299,-0.7688 1.75517,-1.0611 -1.248871,-0.2707 -1.75517,-1.0394 -0.506298,-0.7687 -0.506298,-2.4685 l 0,-2.6851 q 0,-1.5374 -0.483796,-2.0031 -0.472546,-0.4763 -2.047698,-0.4763 l -0.787576,0 0,-1.5484 0.708817,0 q 2.801521,0 3.735361,0.8013 0.945092,0.7904 0.945092,3.1831 l 0,2.5985 q 0,1.6133 0.607558,2.2412 0.607558,0.617 2.205213,0.617 l 0.697568,0 0,1.5484 -0.697568,0 q -1.597655,0 -2.205213,0.628 -0.607558,0.6279 -0.607558,2.2628 l 0,2.5876 q 0,2.3929 -0.945092,3.194 -0.93384,0.8013 -3.735361,0.8013 l -0.708817,0 0,-1.5591 z" />
  </g>
</svg>
